<svg width="267" height="55" viewBox="0 0 267 55" fill="none" xmlns="http://www.w3.org/2000/svg">
<path d="M16.6016 30.9004C16.6016 30.5098 16.5853 29.9076 16.5527 29.0938C16.5202 28.2474 16.4876 27.3197 16.4551 26.3105C16.4551 25.2689 16.4225 24.1784 16.3574 23.0391C16.3249 21.8672 16.2923 20.7604 16.2598 19.7188C16.2598 18.6771 16.2435 17.7493 16.2109 16.9355C16.1784 16.1217 16.1621 15.5195 16.1621 15.1289C16.1621 14.8359 16.1621 14.4616 16.1621 14.0059C16.1947 13.5501 16.1784 13.127 16.1133 12.7363C16.0482 12.3457 15.918 12.0039 15.7227 11.7109C15.5273 11.418 15.2018 11.2715 14.7461 11.2715C13.5417 11.2715 12.3372 11.3366 11.1328 11.4668C9.96094 11.5645 8.78906 11.7598 7.61719 12.0527C6.47786 12.3457 5.37109 12.7526 4.29688 13.2734C3.22266 13.7617 2.21354 14.3802 1.26953 15.1289C1.13932 15.0964 0.960286 14.9824 0.732422 14.7871C0.537109 14.5592 0.423177 14.3802 0.390625 14.25C0.260417 13.7292 0.504557 13.2246 1.12305 12.7363C1.77409 12.248 2.63672 11.7923 3.71094 11.3691C4.81771 10.946 6.03841 10.5716 7.37305 10.2461C8.70768 9.92057 9.99349 9.64388 11.2305 9.41602C12.4674 9.1556 13.5742 8.96029 14.5508 8.83008C15.5599 8.69987 16.2435 8.63477 16.6016 8.63477C16.8945 8.63477 17.1061 8.66732 17.2363 8.73242C17.3991 8.79753 17.6107 8.94401 17.8711 9.17188H28.2715C28.2715 9.39974 28.1413 9.59505 27.8809 9.75781C27.653 9.88802 27.3763 10.0182 27.0508 10.1484C26.7253 10.2461 26.416 10.3275 26.123 10.3926C25.8301 10.4251 25.6348 10.4414 25.5371 10.4414C25.3092 10.474 24.8861 10.5065 24.2676 10.5391C23.6491 10.5716 22.998 10.6204 22.3145 10.6855C21.6634 10.7181 21.0286 10.7507 20.4102 10.7832C19.8242 10.8158 19.401 10.832 19.1406 10.832C18.9128 10.9297 18.6849 11.0436 18.457 11.1738C18.2292 11.304 18.0339 11.4831 17.8711 11.7109C17.9036 11.8737 17.9362 12.1667 17.9688 12.5898C18.0339 12.9805 18.0827 13.4036 18.1152 13.8594C18.1803 14.2826 18.2292 14.7057 18.2617 15.1289C18.2943 15.5195 18.3105 15.7962 18.3105 15.959C18.3105 16.1543 18.3105 16.5938 18.3105 17.2773C18.3105 17.9609 18.3105 18.7747 18.3105 19.7188C18.3105 20.6302 18.3105 21.5905 18.3105 22.5996C18.3105 23.6087 18.3105 24.569 18.3105 25.4805C18.3105 26.3919 18.3105 27.1895 18.3105 27.873C18.3105 28.5241 18.3105 28.9635 18.3105 29.1914C18.3105 29.2565 18.3268 29.4355 18.3594 29.7285C18.3919 30.0215 18.4245 30.347 18.457 30.7051C18.5221 31.0306 18.571 31.3398 18.6035 31.6328C18.6686 31.8932 18.7174 32.056 18.75 32.1211V32.4141C18.75 32.6745 18.6523 32.8535 18.457 32.9512C18.2943 33.0163 18.099 33.0488 17.8711 33.0488C17.6107 33.0488 17.3991 32.9837 17.2363 32.8535C17.0736 32.6908 16.9434 32.4954 16.8457 32.2676C16.7806 32.0397 16.7318 31.8118 16.6992 31.584C16.6667 31.3236 16.6341 31.0957 16.6016 30.9004ZM30.0293 31.1934C30.0293 29.4355 30.1595 27.7103 30.4199 26.0176C30.6803 24.2923 30.9733 22.5833 31.2988 20.8906C31.6569 19.1654 31.9661 17.4564 32.2266 15.7637C32.487 14.071 32.6172 12.362 32.6172 10.6367C32.6172 10.5391 32.6172 10.3763 32.6172 10.1484C32.6172 9.92057 32.6009 9.69271 32.5684 9.46484C32.5684 9.20443 32.5684 8.96029 32.5684 8.73242C32.5684 8.50456 32.5684 8.35807 32.5684 8.29297C32.6009 7.9349 32.5358 7.69076 32.373 7.56055C32.2103 7.43034 31.9987 7.36523 31.7383 7.36523C31.7057 7.36523 31.6406 7.38151 31.543 7.41406C31.4453 7.44661 31.3639 7.46289 31.2988 7.46289C31.1686 7.62565 31.0547 7.73958 30.957 7.80469C30.8594 7.86979 30.7617 7.9349 30.6641 8C30.5664 8.0651 30.4525 8.13021 30.3223 8.19531C30.1921 8.26042 30.0456 8.35807 29.8828 8.48828C29.6549 8.68359 29.3783 8.83008 29.0527 8.92773C28.7598 8.99284 28.4668 9.02539 28.1738 9.02539V7.6582L31.2988 4.875C31.4941 4.67969 31.7057 4.56576 31.9336 4.5332C32.1615 4.4681 32.3893 4.43555 32.6172 4.43555C33.1706 4.43555 33.5938 4.67969 33.8867 5.16797C34.1797 5.6237 34.3913 6.17708 34.5215 6.82812C34.6842 7.44661 34.7656 8.08138 34.7656 8.73242C34.7656 9.35091 34.7656 9.80664 34.7656 10.0996C34.7656 10.2298 34.7656 10.4089 34.7656 10.6367C34.7656 10.8646 34.7656 11.0924 34.7656 11.3203C34.7656 11.5156 34.7656 11.6947 34.7656 11.8574C34.7656 12.0202 34.7656 12.1178 34.7656 12.1504C34.7331 12.2806 34.668 12.6061 34.5703 13.127C34.5052 13.6152 34.4076 14.2012 34.2773 14.8848C34.1797 15.5358 34.0658 16.252 33.9355 17.0332C33.8053 17.7819 33.6751 18.498 33.5449 19.1816C33.4147 19.8327 33.3008 20.4186 33.2031 20.9395C33.138 21.4277 33.0892 21.7695 33.0566 21.9648V22.1113V22.3555C33.1217 22.3229 33.2031 22.2578 33.3008 22.1602C33.3984 22.0625 33.4473 21.9974 33.4473 21.9648C33.5124 21.8672 33.6426 21.6556 33.8379 21.3301C34.0658 20.972 34.2936 20.5977 34.5215 20.207C34.7493 19.8164 34.9609 19.4583 35.1562 19.1328C35.3841 18.8073 35.5306 18.612 35.5957 18.5469C35.7259 18.3841 35.9375 18.14 36.2305 17.8145C36.556 17.4889 36.8978 17.1471 37.2559 16.7891C37.6465 16.431 37.9883 16.1055 38.2812 15.8125C38.6068 15.487 38.8509 15.2591 39.0137 15.1289C39.0462 15.1289 39.1764 15.1289 39.4043 15.1289C39.6322 15.0964 39.7786 15.0801 39.8438 15.0801C40.5924 15.0801 41.097 15.4382 41.3574 16.1543C41.6504 16.8379 41.8132 17.7168 41.8457 18.791C41.9108 19.8327 41.8945 20.972 41.7969 22.209C41.6992 23.4134 41.6667 24.5365 41.6992 25.5781C41.7318 26.6198 41.8783 27.4987 42.1387 28.2148C42.3991 28.8984 42.9199 29.2402 43.7012 29.2402C44.0592 29.2402 44.3685 29.1426 44.6289 28.9473C44.8893 28.752 45.1497 28.5404 45.4102 28.3125C45.6706 28.0846 45.931 27.873 46.1914 27.6777C46.4844 27.4824 46.8262 27.3848 47.2168 27.3848C47.2168 27.873 47.0866 28.3613 46.8262 28.8496C46.5658 29.3379 46.2402 29.7773 45.8496 30.168C45.459 30.5586 45.0033 30.8678 44.4824 31.0957C43.9941 31.291 43.5221 31.3887 43.0664 31.3887C42.1224 31.3887 41.4225 31.0957 40.9668 30.5098C40.5436 29.9238 40.2507 29.224 40.0879 28.4102C39.9577 27.5964 39.8926 26.75 39.8926 25.8711C39.8926 24.9922 39.8763 24.2435 39.8438 23.625C39.8112 23.2344 39.7786 22.7298 39.7461 22.1113C39.7135 21.4603 39.6647 20.8418 39.5996 20.2559C39.5671 19.6699 39.5345 19.1654 39.502 18.7422C39.4694 18.2865 39.4531 18.0586 39.4531 18.0586L39.0137 17.668C38.1348 18.4492 37.3535 19.2793 36.6699 20.1582C35.9863 21.0046 35.4004 21.916 34.9121 22.8926C34.4238 23.8366 33.9844 24.8457 33.5938 25.9199C33.2357 26.9616 32.8939 28.0521 32.5684 29.1914C32.4707 29.582 32.4056 29.9564 32.373 30.3145C32.373 30.64 32.3405 30.9655 32.2754 31.291C32.2103 31.584 32.1126 31.877 31.9824 32.1699C31.8522 32.4303 31.6243 32.707 31.2988 33C30.6803 32.707 30.306 32.4466 30.1758 32.2188C30.0781 31.9909 30.0293 31.6491 30.0293 31.1934ZM46.1426 26.8965C45.9147 27.0267 45.7357 27.0592 45.6055 26.9941C45.4753 26.929 45.3776 26.8314 45.3125 26.7012C45.2799 26.571 45.2474 26.4245 45.2148 26.2617C45.2148 26.0664 45.2148 25.9362 45.2148 25.8711C45.2148 25.2201 45.2962 24.8294 45.459 24.6992C45.6217 24.5365 45.8333 24.4388 46.0938 24.4062C46.3542 24.3411 46.6309 24.2598 46.9238 24.1621C47.2168 24.0645 47.4935 23.7552 47.7539 23.2344C48.1445 22.4206 48.4863 21.5742 48.7793 20.6953C49.1048 19.7839 49.4954 18.9375 49.9512 18.1562C50.4069 17.375 50.9766 16.7402 51.6602 16.252C52.3763 15.7637 53.3529 15.5195 54.5898 15.5195C54.7852 15.5195 54.9967 15.5358 55.2246 15.5684C55.485 15.6009 55.7129 15.666 55.9082 15.7637C56.1361 15.8288 56.3151 15.959 56.4453 16.1543C56.6081 16.3171 56.6895 16.5449 56.6895 16.8379C56.6895 17.5215 56.5104 18.14 56.1523 18.6934C55.8268 19.2142 55.4036 19.7025 54.8828 20.1582C54.3945 20.5814 53.8574 20.9883 53.2715 21.3789C52.6855 21.7695 52.1484 22.1439 51.6602 22.502C51.1719 22.86 50.7487 23.2344 50.3906 23.625C50.0651 24.0156 49.9023 24.4388 49.9023 24.8945V29.582C49.9023 29.9401 50.0326 30.2331 50.293 30.4609C50.5859 30.6562 50.9115 30.819 51.2695 30.9492C51.6276 31.0794 52.002 31.1771 52.3926 31.2422C52.7832 31.3073 53.0762 31.3398 53.2715 31.3398C54.0527 31.3398 54.834 31.2096 55.6152 30.9492C56.3965 30.6562 57.1452 30.2982 57.8613 29.875C58.61 29.4518 59.3099 28.9961 59.9609 28.5078C60.612 27.987 61.2305 27.4987 61.8164 27.043C62.0117 26.8802 62.1745 26.7174 62.3047 26.5547C62.4674 26.3594 62.6139 26.1803 62.7441 26.0176C62.9069 25.8548 63.0697 25.7246 63.2324 25.627C63.4277 25.4967 63.6719 25.3991 63.9648 25.334C63.9648 25.3665 63.9648 25.4316 63.9648 25.5293C63.9648 25.627 63.9648 25.7083 63.9648 25.7734C63.9648 26.0339 63.9323 26.2617 63.8672 26.457C63.8346 26.6523 63.7207 26.8477 63.5254 27.043C62.8092 27.8568 62.0443 28.6217 61.2305 29.3379C60.4167 30.054 59.554 30.6888 58.6426 31.2422C57.7311 31.7956 56.7708 32.235 55.7617 32.5605C54.7526 32.8861 53.6784 33.0488 52.5391 33.0488C51.3997 33.0488 50.5208 32.8861 49.9023 32.5605C49.2839 32.235 48.7956 31.763 48.4375 31.1445C48.112 30.526 47.8841 29.7936 47.7539 28.9473C47.6237 28.1009 47.4772 27.1895 47.3145 26.2129L46.1426 26.8965ZM52.4414 19.3281C52.4414 19.263 52.3763 19.2793 52.2461 19.377C52.1484 19.4421 52.0182 19.5397 51.8555 19.6699C51.7253 19.8001 51.6276 19.9303 51.5625 20.0605C51.4974 20.1582 51.4974 20.207 51.5625 20.207C51.7253 20.2396 51.9206 20.1419 52.1484 19.9141C52.3763 19.6862 52.474 19.4909 52.4414 19.3281ZM63.2324 25.334C64.0137 26.2129 64.8275 27.0267 65.6738 27.7754C66.5202 28.4915 67.4154 29.1263 68.3594 29.6797C69.3034 30.2005 70.2962 30.6074 71.3379 30.9004C72.4121 31.1934 73.5352 31.3398 74.707 31.3398C76.1719 31.3398 77.6367 31.0794 79.1016 30.5586C80.5664 30.0052 81.8848 29.2565 83.0566 28.3125C84.2611 27.3359 85.2376 26.1803 85.9863 24.8457C86.735 23.5111 87.1094 22.0625 87.1094 20.5C87.1094 19.6211 86.8978 18.8561 86.4746 18.2051C86.0514 17.5215 85.498 16.9518 84.8145 16.4961C84.1634 16.0404 83.4147 15.6986 82.5684 15.4707C81.7546 15.2103 80.9408 15.0801 80.127 15.0801C79.7038 15.0801 79.1667 15.1452 78.5156 15.2754C77.8971 15.373 77.2298 15.5195 76.5137 15.7148C75.7975 15.8776 75.0651 16.0892 74.3164 16.3496C73.5677 16.5775 72.8678 16.8379 72.2168 17.1309C71.5658 17.4238 71.0124 17.7331 70.5566 18.0586C70.1009 18.3516 69.7754 18.6445 69.5801 18.9375C69.5801 19.1003 69.5475 19.377 69.4824 19.7676C69.4499 20.1582 69.401 20.5977 69.3359 21.0859C69.3034 21.5417 69.2708 21.9811 69.2383 22.4043C69.2057 22.7949 69.1732 23.0716 69.1406 23.2344C69.1406 23.4297 69.1081 23.6738 69.043 23.9668C68.9779 24.2272 68.8965 24.5039 68.7988 24.7969C68.7337 25.0573 68.6198 25.3177 68.457 25.5781C68.3268 25.8385 68.1478 26.0501 67.9199 26.2129C67.4642 26.0176 67.1387 25.7083 66.9434 25.2852C66.748 24.8294 66.6178 24.3411 66.5527 23.8203C66.5202 23.2669 66.5202 22.7298 66.5527 22.209C66.5853 21.6556 66.6016 21.1999 66.6016 20.8418C66.6016 20.5163 66.6016 19.9792 66.6016 19.2305C66.6341 18.4818 66.6667 17.6029 66.6992 16.5938C66.7643 15.5846 66.8457 14.4941 66.9434 13.3223C67.0736 12.1178 67.2363 10.9297 67.4316 9.75781C67.627 8.55339 67.8711 7.41406 68.1641 6.33984C68.457 5.23307 68.8151 4.25651 69.2383 3.41016C69.6615 2.53125 70.1497 1.84766 70.7031 1.35938C71.2891 0.838542 71.9401 0.578125 72.6562 0.578125C73.5026 0.578125 74.2513 0.773438 74.9023 1.16406C75.5859 1.55469 76.1556 2.05924 76.6113 2.67773C77.0996 3.26367 77.474 3.94727 77.7344 4.72852C78.0273 5.47721 78.1738 6.24219 78.1738 7.02344C78.1738 7.64193 78.0599 8.24414 77.832 8.83008C77.6042 9.38346 77.36 9.92057 77.0996 10.4414C76.8717 10.9622 76.6439 11.4831 76.416 12.0039C76.1882 12.5247 76.0742 13.0618 76.0742 13.6152C76.8555 13.6152 77.7344 13.6315 78.7109 13.6641C79.6875 13.6966 80.6803 13.778 81.6895 13.9082C82.6986 14.0384 83.6751 14.2663 84.6191 14.5918C85.5957 14.8848 86.4583 15.3079 87.207 15.8613C87.9557 16.3822 88.5417 17.0495 88.9648 17.8633C89.4206 18.6771 89.6484 19.6699 89.6484 20.8418C89.6484 22.0137 89.4368 23.1367 89.0137 24.2109C88.5905 25.2526 88.0046 26.2292 87.2559 27.1406C86.5397 28.0521 85.6934 28.8659 84.7168 29.582C83.7728 30.2982 82.7474 30.9167 81.6406 31.4375C80.5664 31.9583 79.4596 32.3652 78.3203 32.6582C77.2135 32.9186 76.1393 33.0488 75.0977 33.0488C74.5443 33.0488 73.8444 32.9674 72.998 32.8047C72.1842 32.6094 71.3379 32.3652 70.459 32.0723C69.5801 31.7467 68.7012 31.3561 67.8223 30.9004C66.9759 30.4121 66.2109 29.9076 65.5273 29.3867C64.8438 28.8333 64.2904 28.2311 63.8672 27.5801C63.444 26.929 63.2324 26.2454 63.2324 25.5293V25.334ZM73.2422 2.72656C72.819 2.72656 72.4447 2.93815 72.1191 3.36133C71.7936 3.78451 71.5007 4.33789 71.2402 5.02148C71.0124 5.67253 70.8171 6.40495 70.6543 7.21875C70.5241 8 70.3939 8.78125 70.2637 9.5625C70.166 10.3112 70.1009 10.9948 70.0684 11.6133C70.0358 12.2318 70.0195 12.6875 70.0195 12.9805C70.0195 13.0781 70.0195 13.2572 70.0195 13.5176C70.0195 13.7454 70.0195 13.9896 70.0195 14.25C70.0195 14.5104 70.0195 14.7708 70.0195 15.0312C70.0195 15.2591 70.0195 15.4219 70.0195 15.5195C70.8008 14.9987 71.5495 14.429 72.2656 13.8105C72.9818 13.1921 73.6165 12.541 74.1699 11.8574C74.7559 11.1413 75.2116 10.3763 75.5371 9.5625C75.8952 8.71615 76.0742 7.78841 76.0742 6.7793C76.0742 6.32357 76.0254 5.85156 75.9277 5.36328C75.8301 4.875 75.6673 4.43555 75.4395 4.04492C75.2441 3.6543 74.9512 3.34505 74.5605 3.11719C74.2025 2.85677 73.763 2.72656 73.2422 2.72656ZM90.8691 31.3398C90.8691 31.2422 90.8691 31.0794 90.8691 30.8516C90.8691 30.5911 90.8529 30.3307 90.8203 30.0703C90.8203 29.7773 90.8203 29.5169 90.8203 29.2891C90.8203 29.0286 90.8203 28.8333 90.8203 28.7031C90.8203 27.7917 90.8854 26.8151 91.0156 25.7734C91.1458 24.7318 91.3411 23.7227 91.6016 22.7461C91.862 21.737 92.2038 20.7767 92.627 19.8652C93.0827 18.9212 93.6361 18.1074 94.2871 17.4238C94.9707 16.7077 95.752 16.138 96.6309 15.7148C97.5098 15.2917 98.5189 15.0801 99.6582 15.0801C100.407 15.0801 100.977 15.3079 101.367 15.7637C101.758 16.1868 102.018 16.724 102.148 17.375C102.311 18.026 102.393 18.7096 102.393 19.4258C102.425 20.1419 102.441 20.7767 102.441 21.3301C102.441 22.5996 102.311 23.9342 102.051 25.334C101.79 26.7012 101.367 27.9544 100.781 29.0938C100.195 30.2331 99.3815 31.1771 98.3398 31.9258C97.3307 32.6745 96.0612 33.0488 94.5312 33.0488C94.0755 33.0488 93.6849 33.0326 93.3594 33C93.0339 32.9674 92.7409 32.8861 92.4805 32.7559C92.2201 32.5931 91.9596 32.4141 91.6992 32.2188C91.4388 31.9909 91.1621 31.6979 90.8691 31.3398ZM92.5781 30.4609C92.8711 30.7539 93.2129 30.9004 93.6035 30.9004C93.9941 30.9004 94.3685 30.9004 94.7266 30.9004C95.9635 30.9004 96.9727 30.5911 97.7539 29.9727C98.5352 29.3216 99.1374 28.5241 99.5605 27.5801C100.016 26.6361 100.326 25.6107 100.488 24.5039C100.684 23.3646 100.781 22.3066 100.781 21.3301C100.781 20.8743 100.781 20.3861 100.781 19.8652C100.814 19.3118 100.765 18.8073 100.635 18.3516C100.537 17.8633 100.342 17.4727 100.049 17.1797C99.7559 16.8542 99.3164 16.6914 98.7305 16.6914C98.7305 17.2122 98.6654 17.6029 98.5352 17.8633C98.4049 18.1237 98.2259 18.3027 97.998 18.4004C97.8027 18.498 97.5586 18.5632 97.2656 18.5957C97.0052 18.5957 96.7122 18.6445 96.3867 18.7422C96.0938 18.8398 95.8008 18.9863 95.5078 19.1816C95.2148 19.377 94.9544 19.7188 94.7266 20.207C94.2057 21.6719 93.7012 23.0879 93.2129 24.4551C92.7572 25.7897 92.5293 27.2057 92.5293 28.7031C92.5293 28.8008 92.5293 28.931 92.5293 29.0938C92.5293 29.224 92.5293 29.3867 92.5293 29.582C92.5618 29.7773 92.5781 29.9564 92.5781 30.1191C92.5781 30.2493 92.5781 30.3633 92.5781 30.4609ZM105.811 31.3398C106.136 30.0378 106.364 28.8659 106.494 27.8242C106.657 26.75 106.755 25.7083 106.787 24.6992C106.852 23.6901 106.868 22.6322 106.836 21.5254C106.836 20.4186 106.836 19.1654 106.836 17.7656C106.315 17.7656 105.924 17.7982 105.664 17.8633C105.436 17.9284 105.273 18.0098 105.176 18.1074C105.078 18.1725 105.013 18.2539 104.98 18.3516C104.948 18.4492 104.883 18.5469 104.785 18.6445C104.72 18.7096 104.574 18.7747 104.346 18.8398C104.118 18.9049 103.76 18.9375 103.271 18.9375C102.979 18.9375 102.767 18.8236 102.637 18.5957C102.507 18.3678 102.441 18.1074 102.441 17.8145C102.441 17.554 102.62 17.2773 102.979 16.9844C103.304 16.6914 103.695 16.3984 104.15 16.1055C104.639 15.8125 105.127 15.5684 105.615 15.373C106.136 15.1777 106.576 15.0801 106.934 15.0801C107.064 15.0801 107.243 15.1452 107.471 15.2754C107.731 15.373 107.975 15.5195 108.203 15.7148C108.431 15.8776 108.61 16.0566 108.74 16.252C108.903 16.4473 108.984 16.6426 108.984 16.8379V23.625C109.31 23.1367 109.831 22.4694 110.547 21.623C111.263 20.7767 112.061 19.9466 112.939 19.1328C113.818 18.2865 114.714 17.554 115.625 16.9355C116.536 16.3171 117.35 16.0078 118.066 16.0078C119.043 16.0078 119.727 16.3333 120.117 16.9844C120.508 17.6029 120.703 18.3841 120.703 19.3281C120.312 19.3281 120.003 19.263 119.775 19.1328C119.548 19.0026 119.336 18.8561 119.141 18.6934C118.978 18.5306 118.799 18.4004 118.604 18.3027C118.408 18.1725 118.148 18.1074 117.822 18.1074C116.781 18.3027 115.804 18.8236 114.893 19.6699C113.981 20.5163 113.135 21.5091 112.354 22.6484C111.605 23.7878 110.921 24.9922 110.303 26.2617C109.717 27.5312 109.196 28.6868 108.74 29.7285C108.285 30.7702 107.91 31.6165 107.617 32.2676C107.357 32.9186 107.194 33.179 107.129 33.0488C106.803 33.0488 106.494 32.9023 106.201 32.6094C105.941 32.2839 105.811 31.9095 105.811 31.4863V31.3398ZM125.83 26.1641C125.83 25.3177 125.879 24.4876 125.977 23.6738C126.074 22.8275 126.172 21.9974 126.27 21.1836C126.4 20.3372 126.514 19.5072 126.611 18.6934C126.709 17.847 126.758 16.9844 126.758 16.1055C126.758 15.9102 126.709 15.6986 126.611 15.4707C126.546 15.2103 126.351 15.0801 126.025 15.0801C125.602 15.0801 125.326 15.1126 125.195 15.1777C125.065 15.2428 124.967 15.3242 124.902 15.4219C124.87 15.5195 124.788 15.6335 124.658 15.7637C124.561 15.8939 124.316 16.0241 123.926 16.1543H123.682C122.998 16.1543 122.656 15.7962 122.656 15.0801C122.656 14.8848 122.868 14.5755 123.291 14.1523C123.747 13.7292 124.268 13.3385 124.854 12.9805C125.439 12.5898 125.993 12.2643 126.514 12.0039C127.035 11.7109 127.376 11.6133 127.539 11.7109C127.604 11.7109 127.702 11.776 127.832 11.9062C127.962 12.0039 128.092 12.1341 128.223 12.2969C128.353 12.4271 128.467 12.5573 128.564 12.6875C128.695 12.8177 128.776 12.9154 128.809 12.9805C128.809 13.0456 128.809 13.1758 128.809 13.3711C128.809 13.5664 128.809 13.778 128.809 14.0059C128.841 14.2337 128.857 14.4616 128.857 14.6895C128.857 14.8848 128.857 15.0312 128.857 15.1289C128.857 16.0729 128.792 17.0169 128.662 17.9609C128.532 18.8724 128.369 19.8001 128.174 20.7441C128.011 21.6882 127.865 22.6322 127.734 23.5762C127.604 24.5202 127.539 25.4642 127.539 26.4082C127.539 26.571 127.555 26.8965 127.588 27.3848C127.62 27.873 127.686 28.3776 127.783 28.8984C127.913 29.4193 128.092 29.8913 128.32 30.3145C128.548 30.7051 128.857 30.9004 129.248 30.9004C130.029 30.9004 130.615 30.8027 131.006 30.6074C131.396 30.3796 131.738 30.1354 132.031 29.875C132.324 29.6146 132.633 29.3867 132.959 29.1914C133.317 28.9635 133.805 28.8496 134.424 28.8496C134.424 30.2168 133.919 31.2585 132.91 31.9746C131.901 32.6908 130.615 33.0488 129.053 33.0488C128.239 33.0488 127.62 32.7884 127.197 32.2676C126.774 31.7467 126.449 31.1283 126.221 30.4121C126.025 29.6634 125.911 28.8984 125.879 28.1172C125.846 27.3359 125.83 26.6849 125.83 26.1641ZM126.318 5.75391C126.318 5.39583 126.367 5.11914 126.465 4.92383C126.595 4.72852 126.872 4.63086 127.295 4.63086C127.588 4.63086 127.783 4.74479 127.881 4.97266C128.011 5.16797 128.076 5.42839 128.076 5.75391C128.076 6.04688 128.011 6.30729 127.881 6.53516C127.783 6.73047 127.588 6.82812 127.295 6.82812C126.872 6.82812 126.595 6.74674 126.465 6.58398C126.367 6.38867 126.318 6.11198 126.318 5.75391ZM137.109 29.582C137.174 29.3216 137.272 28.8984 137.402 28.3125C137.533 27.694 137.663 27.0104 137.793 26.2617C137.956 25.513 138.102 24.7155 138.232 23.8691C138.395 23.0228 138.542 22.2253 138.672 21.4766C138.835 20.7279 138.965 20.0443 139.062 19.4258C139.16 18.8073 139.225 18.3516 139.258 18.0586C139.29 17.9284 139.29 17.7331 139.258 17.4727C139.225 17.2122 139.193 16.9193 139.16 16.5938C139.128 16.2682 139.095 15.9753 139.062 15.7148C139.03 15.4544 139.014 15.2591 139.014 15.1289C138.916 15.1289 138.753 15.0964 138.525 15.0312C138.298 14.9661 138.053 14.9173 137.793 14.8848C137.565 14.8197 137.354 14.7708 137.158 14.7383C136.963 14.6732 136.816 14.6406 136.719 14.6406C135.938 14.9336 135.352 15.3079 134.961 15.7637C134.603 16.1868 134.261 16.61 133.936 17.0332C133.643 17.4564 133.285 17.8307 132.861 18.1562C132.438 18.4492 131.82 18.5957 131.006 18.5957C130.713 18.5957 130.501 18.4818 130.371 18.2539C130.241 18.026 130.176 17.7656 130.176 17.4727V17.2773C130.892 16.4635 131.576 15.7637 132.227 15.1777C132.845 14.5918 133.512 14.1035 134.229 13.7129C134.945 13.2897 135.726 12.9805 136.572 12.7852C137.419 12.5898 138.395 12.4922 139.502 12.4922C139.99 12.4922 140.348 12.5898 140.576 12.7852C140.837 12.9479 141.032 13.1758 141.162 13.4688C141.292 13.7292 141.357 14.0384 141.357 14.3965C141.39 14.7546 141.406 15.1452 141.406 15.5684C141.406 16.4473 141.309 17.3262 141.113 18.2051C140.951 19.0514 140.755 19.9141 140.527 20.793C140.332 21.6393 140.137 22.502 139.941 23.3809C139.746 24.2272 139.648 25.1061 139.648 26.0176V26.2129C139.746 25.9525 139.958 25.5293 140.283 24.9434C140.609 24.3249 140.951 23.6738 141.309 22.9902C141.667 22.3066 142.008 21.6719 142.334 21.0859C142.692 20.4674 142.936 20.0443 143.066 19.8164C143.099 19.7839 143.213 19.6536 143.408 19.4258C143.604 19.1654 143.831 18.8724 144.092 18.5469C144.385 18.2214 144.661 17.9121 144.922 17.6191C145.215 17.2936 145.459 17.0332 145.654 16.8379C145.85 16.5775 146.077 16.3008 146.338 16.0078C146.631 15.7148 146.924 15.4382 147.217 15.1777C147.542 14.9173 147.868 14.7057 148.193 14.543C148.551 14.3477 148.91 14.25 149.268 14.25C149.561 14.25 149.772 14.3639 149.902 14.5918C150.065 14.8197 150.179 15.0964 150.244 15.4219C150.309 15.7474 150.342 16.0892 150.342 16.4473C150.342 16.7728 150.342 17.0495 150.342 17.2773C150.342 18.2539 150.228 19.2305 150 20.207C149.772 21.1836 149.528 22.1602 149.268 23.1367C149.007 24.0807 148.747 25.041 148.486 26.0176C148.258 26.9941 148.145 27.9707 148.145 28.9473C148.145 29.3704 148.21 29.7285 148.34 30.0215C148.47 30.3145 148.763 30.4609 149.219 30.4609C149.805 30.4609 150.342 30.2982 150.83 29.9727C151.318 29.6471 151.774 29.3053 152.197 28.9473C152.653 28.5566 153.092 28.1986 153.516 27.873C153.971 27.5475 154.476 27.3848 155.029 27.3848V28.3125C155.029 28.3451 154.948 28.4427 154.785 28.6055C154.622 28.7682 154.427 28.9635 154.199 29.1914C153.971 29.4193 153.727 29.6471 153.467 29.875C153.239 30.1029 153.044 30.2982 152.881 30.4609C152.62 30.6888 152.327 30.9329 152.002 31.1934C151.676 31.4538 151.335 31.6979 150.977 31.9258C150.651 32.1211 150.293 32.3001 149.902 32.4629C149.512 32.5931 149.137 32.6582 148.779 32.6582C148.291 32.6582 147.884 32.528 147.559 32.2676C147.266 31.9746 147.038 31.6328 146.875 31.2422C146.712 30.819 146.598 30.3796 146.533 29.9238C146.468 29.4681 146.436 29.0612 146.436 28.7031C146.436 27.7266 146.517 26.7663 146.68 25.8223C146.875 24.8457 147.07 23.9017 147.266 22.9902C147.461 22.0462 147.64 21.1022 147.803 20.1582C147.965 19.2142 148.047 18.2539 148.047 17.2773H147.754C147.721 17.2773 147.607 17.375 147.412 17.5703C147.217 17.7656 146.973 17.9935 146.68 18.2539C146.419 18.5143 146.159 18.791 145.898 19.084C145.638 19.377 145.41 19.6211 145.215 19.8164C145.052 20.0117 144.873 20.2559 144.678 20.5488C144.482 20.8092 144.287 21.1022 144.092 21.4277C143.896 21.7533 143.701 22.0788 143.506 22.4043C143.343 22.6973 143.197 22.974 143.066 23.2344C142.969 23.4622 142.806 23.804 142.578 24.2598C142.35 24.7155 142.09 25.2363 141.797 25.8223C141.536 26.4082 141.243 27.0267 140.918 27.6777C140.625 28.3288 140.332 28.9473 140.039 29.5332C139.779 30.1191 139.535 30.64 139.307 31.0957C139.079 31.5514 138.916 31.8932 138.818 32.1211C138.786 32.2513 138.656 32.4303 138.428 32.6582C138.2 32.8535 138.053 32.9674 137.988 33C137.923 33.0326 137.891 33.0488 137.891 33.0488H137.744H137.646C137.614 33.0488 137.581 33.0326 137.549 33C137.484 32.9674 137.386 32.9023 137.256 32.8047C137.158 32.707 137.109 32.6419 137.109 32.6094V29.582ZM151.465 41.3008C151.465 40.9427 151.481 40.5521 151.514 40.1289C151.514 39.7057 151.562 39.2826 151.66 38.8594C151.725 38.4362 151.839 38.0456 152.002 37.6875C152.165 37.3294 152.425 37.0365 152.783 36.8086C152.783 37.069 152.799 37.5247 152.832 38.1758C152.865 38.8268 152.897 39.5104 152.93 40.2266C152.995 40.9427 153.044 41.6263 153.076 42.2773C153.109 42.9609 153.141 43.4167 153.174 43.6445C153.239 44.3281 153.402 45.028 153.662 45.7441C153.955 46.4928 154.264 47.2253 154.59 47.9414C154.948 48.6901 155.306 49.39 155.664 50.041C156.022 50.7246 156.331 51.2943 156.592 51.75C156.82 52.1081 157.145 52.3522 157.568 52.4824C157.992 52.6126 158.398 52.6777 158.789 52.6777C159.505 52.6777 160.14 52.3848 160.693 51.7988C161.279 51.2454 161.784 50.5293 162.207 49.6504C162.63 48.7715 163.005 47.7949 163.33 46.7207C163.656 45.6465 163.916 44.5885 164.111 43.5469C164.307 42.5378 164.453 41.61 164.551 40.7637C164.648 39.9499 164.697 39.3477 164.697 38.957C164.697 38.9245 164.697 38.7454 164.697 38.4199C164.697 38.0944 164.697 37.7038 164.697 37.248C164.73 36.8249 164.746 36.3854 164.746 35.9297C164.746 35.5065 164.746 35.1647 164.746 34.9043C164.746 33.3743 164.714 31.8444 164.648 30.3145C164.616 28.752 164.355 27.2383 163.867 25.7734C163.835 25.7734 163.786 25.7734 163.721 25.7734C163.688 25.7409 163.672 25.7246 163.672 25.7246C163.444 25.7246 163.07 25.9525 162.549 26.4082C162.028 26.8639 161.41 27.3685 160.693 27.9219C159.977 28.4427 159.212 28.931 158.398 29.3867C157.585 29.8099 156.755 30.0215 155.908 30.0215C155.355 30.0215 154.915 29.9076 154.59 29.6797C154.297 29.4518 154.069 29.1589 153.906 28.8008C153.776 28.4427 153.695 28.0521 153.662 27.6289C153.63 27.1732 153.613 26.7337 153.613 26.3105C153.613 25.3014 153.841 24.2272 154.297 23.0879C154.753 21.916 155.355 20.8255 156.104 19.8164C156.852 18.8073 157.731 17.9772 158.74 17.3262C159.749 16.6751 160.807 16.3496 161.914 16.3496C162.337 16.3496 162.712 16.431 163.037 16.5938C163.363 16.7565 163.704 16.8379 164.062 16.8379C164.258 16.8379 164.404 16.7891 164.502 16.6914C164.632 16.5938 164.746 16.4961 164.844 16.3984C164.974 16.2682 165.104 16.1543 165.234 16.0566C165.365 15.959 165.527 15.9102 165.723 15.9102C166.309 15.9102 166.634 16.0404 166.699 16.3008C166.797 16.5612 166.846 16.9681 166.846 17.5215C166.846 19.5072 166.813 21.4766 166.748 23.4297C166.683 25.3503 166.618 27.2871 166.553 29.2402C166.488 31.1608 166.439 33.0977 166.406 35.0508C166.374 37.0365 166.39 39.0547 166.455 41.1055C166.325 41.6263 166.162 42.3262 165.967 43.2051C165.804 44.084 165.576 45.0117 165.283 45.9883C165.023 46.9648 164.697 47.9414 164.307 48.918C163.916 49.8945 163.46 50.7897 162.939 51.6035C162.451 52.4173 161.865 53.0684 161.182 53.5566C160.531 54.0775 159.798 54.3379 158.984 54.3379C158.203 54.3379 157.471 54.0938 156.787 53.6055C156.104 53.1497 155.469 52.5475 154.883 51.7988C154.329 51.0501 153.841 50.2038 153.418 49.2598C152.995 48.3158 152.637 47.3555 152.344 46.3789C152.051 45.4349 151.839 44.5072 151.709 43.5957C151.546 42.7168 151.465 41.9518 151.465 41.3008ZM155.322 26.6523C155.322 27.2383 155.387 27.6126 155.518 27.7754C155.68 27.9056 156.055 27.9707 156.641 27.9707C157.324 27.9707 158.073 27.7428 158.887 27.2871C159.733 26.8314 160.531 26.2617 161.279 25.5781C162.028 24.8945 162.646 24.1621 163.135 23.3809C163.656 22.5671 163.916 21.8184 163.916 21.1348C163.916 20.321 163.802 19.6699 163.574 19.1816C163.346 18.6934 162.793 18.4492 161.914 18.4492C161.035 18.4492 160.189 18.7259 159.375 19.2793C158.561 19.8001 157.845 20.4837 157.227 21.3301C156.641 22.1439 156.169 23.0391 155.811 24.0156C155.485 24.9596 155.322 25.8385 155.322 26.6523ZM184.326 30.9004C184.326 30.5098 184.31 29.9076 184.277 29.0938C184.245 28.2474 184.212 27.3197 184.18 26.3105C184.18 25.2689 184.147 24.1784 184.082 23.0391C184.049 21.8672 184.017 20.7604 183.984 19.7188C183.984 18.6771 183.968 17.7493 183.936 16.9355C183.903 16.1217 183.887 15.5195 183.887 15.1289C183.887 14.8359 183.887 14.4616 183.887 14.0059C183.919 13.5501 183.903 13.127 183.838 12.7363C183.773 12.3457 183.643 12.0039 183.447 11.7109C183.252 11.418 182.926 11.2715 182.471 11.2715C181.266 11.2715 180.062 11.3366 178.857 11.4668C177.686 11.5645 176.514 11.7598 175.342 12.0527C174.202 12.3457 173.096 12.7526 172.021 13.2734C170.947 13.7617 169.938 14.3802 168.994 15.1289C168.864 15.0964 168.685 14.9824 168.457 14.7871C168.262 14.5592 168.148 14.3802 168.115 14.25C167.985 13.7292 168.229 13.2246 168.848 12.7363C169.499 12.248 170.361 11.7923 171.436 11.3691C172.542 10.946 173.763 10.5716 175.098 10.2461C176.432 9.92057 177.718 9.64388 178.955 9.41602C180.192 9.1556 181.299 8.96029 182.275 8.83008C183.285 8.69987 183.968 8.63477 184.326 8.63477C184.619 8.63477 184.831 8.66732 184.961 8.73242C185.124 8.79753 185.335 8.94401 185.596 9.17188H195.996C195.996 9.39974 195.866 9.59505 195.605 9.75781C195.378 9.88802 195.101 10.0182 194.775 10.1484C194.45 10.2461 194.141 10.3275 193.848 10.3926C193.555 10.4251 193.359 10.4414 193.262 10.4414C193.034 10.474 192.611 10.5065 191.992 10.5391C191.374 10.5716 190.723 10.6204 190.039 10.6855C189.388 10.7181 188.753 10.7507 188.135 10.7832C187.549 10.8158 187.126 10.832 186.865 10.832C186.637 10.9297 186.41 11.0436 186.182 11.1738C185.954 11.304 185.758 11.4831 185.596 11.7109C185.628 11.8737 185.661 12.1667 185.693 12.5898C185.758 12.9805 185.807 13.4036 185.84 13.8594C185.905 14.2826 185.954 14.7057 185.986 15.1289C186.019 15.5195 186.035 15.7962 186.035 15.959C186.035 16.1543 186.035 16.5938 186.035 17.2773C186.035 17.9609 186.035 18.7747 186.035 19.7188C186.035 20.6302 186.035 21.5905 186.035 22.5996C186.035 23.6087 186.035 24.569 186.035 25.4805C186.035 26.3919 186.035 27.1895 186.035 27.873C186.035 28.5241 186.035 28.9635 186.035 29.1914C186.035 29.2565 186.051 29.4355 186.084 29.7285C186.117 30.0215 186.149 30.347 186.182 30.7051C186.247 31.0306 186.296 31.3398 186.328 31.6328C186.393 31.8932 186.442 32.056 186.475 32.1211V32.4141C186.475 32.6745 186.377 32.8535 186.182 32.9512C186.019 33.0163 185.824 33.0488 185.596 33.0488C185.335 33.0488 185.124 32.9837 184.961 32.8535C184.798 32.6908 184.668 32.4954 184.57 32.2676C184.505 32.0397 184.456 31.8118 184.424 31.584C184.391 31.3236 184.359 31.0957 184.326 30.9004ZM197.998 26.8965C197.77 27.0267 197.591 27.0592 197.461 26.9941C197.331 26.929 197.233 26.8314 197.168 26.7012C197.135 26.571 197.103 26.4245 197.07 26.2617C197.07 26.0664 197.07 25.9362 197.07 25.8711C197.07 25.2201 197.152 24.8294 197.314 24.6992C197.477 24.5365 197.689 24.4388 197.949 24.4062C198.21 24.3411 198.486 24.2598 198.779 24.1621C199.072 24.0645 199.349 23.7552 199.609 23.2344C200 22.4206 200.342 21.5742 200.635 20.6953C200.96 19.7839 201.351 18.9375 201.807 18.1562C202.262 17.375 202.832 16.7402 203.516 16.252C204.232 15.7637 205.208 15.5195 206.445 15.5195C206.641 15.5195 206.852 15.5358 207.08 15.5684C207.34 15.6009 207.568 15.666 207.764 15.7637C207.992 15.8288 208.171 15.959 208.301 16.1543C208.464 16.3171 208.545 16.5449 208.545 16.8379C208.545 17.5215 208.366 18.14 208.008 18.6934C207.682 19.2142 207.259 19.7025 206.738 20.1582C206.25 20.5814 205.713 20.9883 205.127 21.3789C204.541 21.7695 204.004 22.1439 203.516 22.502C203.027 22.86 202.604 23.2344 202.246 23.625C201.921 24.0156 201.758 24.4388 201.758 24.8945V29.582C201.758 29.9401 201.888 30.2331 202.148 30.4609C202.441 30.6562 202.767 30.819 203.125 30.9492C203.483 31.0794 203.857 31.1771 204.248 31.2422C204.639 31.3073 204.932 31.3398 205.127 31.3398C205.908 31.3398 206.689 31.2096 207.471 30.9492C208.252 30.6562 209.001 30.2982 209.717 29.875C210.465 29.4518 211.165 28.9961 211.816 28.5078C212.467 27.987 213.086 27.4987 213.672 27.043C213.867 26.8802 214.03 26.7174 214.16 26.5547C214.323 26.3594 214.469 26.1803 214.6 26.0176C214.762 25.8548 214.925 25.7246 215.088 25.627C215.283 25.4967 215.527 25.3991 215.82 25.334C215.82 25.3665 215.82 25.4316 215.82 25.5293C215.82 25.627 215.82 25.7083 215.82 25.7734C215.82 26.0339 215.788 26.2617 215.723 26.457C215.69 26.6523 215.576 26.8477 215.381 27.043C214.665 27.8568 213.9 28.6217 213.086 29.3379C212.272 30.054 211.41 30.6888 210.498 31.2422C209.587 31.7956 208.626 32.235 207.617 32.5605C206.608 32.8861 205.534 33.0488 204.395 33.0488C203.255 33.0488 202.376 32.8861 201.758 32.5605C201.139 32.235 200.651 31.763 200.293 31.1445C199.967 30.526 199.74 29.7936 199.609 28.9473C199.479 28.1009 199.333 27.1895 199.17 26.2129L197.998 26.8965ZM204.297 19.3281C204.297 19.263 204.232 19.2793 204.102 19.377C204.004 19.4421 203.874 19.5397 203.711 19.6699C203.581 19.8001 203.483 19.9303 203.418 20.0605C203.353 20.1582 203.353 20.207 203.418 20.207C203.581 20.2396 203.776 20.1419 204.004 19.9141C204.232 19.6862 204.329 19.4909 204.297 19.3281ZM226.123 27.043C225.635 27.6289 225.065 28.2474 224.414 28.8984C223.796 29.5495 223.112 30.1517 222.363 30.7051C221.647 31.2585 220.882 31.7305 220.068 32.1211C219.287 32.4792 218.473 32.6582 217.627 32.6582C215.902 32.6582 215.039 31.8281 215.039 30.168C215.039 29.4844 215.316 28.5892 215.869 27.4824C216.455 26.3431 217.204 25.1549 218.115 23.918C219.027 22.681 220.036 21.4928 221.143 20.3535C222.249 19.1816 223.356 18.2214 224.463 17.4727C225.57 16.6914 226.579 16.2031 227.49 16.0078C228.434 15.8125 229.199 16.0892 229.785 16.8379C229.785 17.7168 229.72 18.5957 229.59 19.4746C229.46 20.3535 229.329 21.2324 229.199 22.1113C229.069 22.9577 228.939 23.804 228.809 24.6504C228.678 25.4967 228.613 26.3594 228.613 27.2383C228.613 27.4336 228.63 27.7428 228.662 28.166C228.727 28.5566 228.809 28.9635 228.906 29.3867C229.036 29.7773 229.199 30.1354 229.395 30.4609C229.59 30.7539 229.85 30.9004 230.176 30.9004C230.957 30.9004 231.592 30.8027 232.08 30.6074C232.601 30.4121 233.04 30.1842 233.398 29.9238C233.789 29.6309 234.115 29.3053 234.375 28.9473C234.668 28.5892 234.961 28.2311 235.254 27.873C235.579 27.515 235.938 27.1732 236.328 26.8477C236.719 26.5221 237.223 26.2617 237.842 26.0664C237.842 26.0664 237.842 26.1152 237.842 26.2129C237.842 26.3105 237.842 26.3919 237.842 26.457C237.842 27.2708 237.598 28.0846 237.109 28.8984C236.621 29.6797 236.003 30.3796 235.254 30.998C234.505 31.6165 233.659 32.1211 232.715 32.5117C231.803 32.8698 230.908 33.0488 230.029 33.0488C229.281 33.0488 228.678 32.8372 228.223 32.4141C227.767 31.9909 227.393 31.4863 227.1 30.9004C226.839 30.3145 226.644 29.6797 226.514 28.9961C226.383 28.2799 226.253 27.6289 226.123 27.043ZM227.002 20.6465C227.327 19.5723 227.441 18.8398 227.344 18.4492C227.279 18.0586 227.051 17.9121 226.66 18.0098C226.27 18.0749 225.765 18.3516 225.146 18.8398C224.528 19.2956 223.861 19.8652 223.145 20.5488C222.428 21.1999 221.712 21.9323 220.996 22.7461C220.28 23.5599 219.613 24.3411 218.994 25.0898C218.376 25.806 217.871 26.457 217.48 27.043C217.09 27.6289 216.846 28.0521 216.748 28.3125C216.553 29.0612 216.52 29.6309 216.65 30.0215C216.813 30.4121 217.041 30.6888 217.334 30.8516C217.66 30.9818 218.001 30.998 218.359 30.9004C218.75 30.8027 219.076 30.6562 219.336 30.4609C219.889 29.9727 220.589 29.3216 221.436 28.5078C222.282 27.6615 223.096 26.7663 223.877 25.8223C224.691 24.8783 225.391 23.9505 225.977 23.0391C226.562 22.0951 226.904 21.2975 227.002 20.6465ZM241.65 19.8164L241.211 18.0586L240.332 18.5469L235.254 23.625C235.221 23.6576 235.107 23.625 234.912 23.5273C234.684 23.3971 234.521 23.2995 234.424 23.2344C234.359 23.1693 234.277 23.0879 234.18 22.9902C234.049 22.86 233.984 22.7786 233.984 22.7461V22.5508C233.984 22.3555 234.131 22.0462 234.424 21.623C234.684 21.1999 235.042 20.7279 235.498 20.207C235.954 19.6862 236.458 19.1491 237.012 18.5957C237.598 18.0098 238.167 17.5052 238.721 17.082C239.307 16.6263 239.86 16.252 240.381 15.959C240.902 15.666 241.341 15.5195 241.699 15.5195C242.318 15.5195 242.773 15.8125 243.066 16.3984C243.392 16.9518 243.604 17.6191 243.701 18.4004C243.831 19.1491 243.88 19.9141 243.848 20.6953C243.815 21.444 243.799 21.9974 243.799 22.3555C243.896 22.1927 244.108 21.916 244.434 21.5254C244.759 21.1022 245.101 20.6628 245.459 20.207C245.817 19.7188 246.159 19.2793 246.484 18.8887C246.81 18.498 247.038 18.2214 247.168 18.0586C247.266 17.9609 247.477 17.7331 247.803 17.375C248.161 16.9844 248.535 16.5938 248.926 16.2031C249.349 15.7799 249.788 15.4219 250.244 15.1289C250.7 14.8034 251.09 14.6406 251.416 14.6406C252.002 14.6406 252.425 14.8197 252.686 15.1777C252.946 15.5033 253.109 15.9102 253.174 16.3984C253.271 16.8867 253.304 17.4076 253.271 17.9609C253.239 18.4818 253.223 18.9212 253.223 19.2793C253.223 20.5163 253.141 21.737 252.979 22.9414C252.816 24.1458 252.734 25.3828 252.734 26.6523V27.043C253.418 26.2617 254.004 25.3991 254.492 24.4551C255.013 23.5111 255.534 22.5833 256.055 21.6719C256.576 20.7279 257.129 19.8327 257.715 18.9863C258.333 18.14 259.082 17.4238 259.961 16.8379C260.026 16.8053 260.124 16.7891 260.254 16.7891C260.417 16.7565 260.531 16.7402 260.596 16.7402C260.954 16.7402 261.214 16.8542 261.377 17.082C261.572 17.2773 261.686 17.5378 261.719 17.8633C261.784 18.1562 261.8 18.4655 261.768 18.791C261.735 19.1165 261.719 19.3932 261.719 19.6211C261.719 21.0208 261.637 22.4043 261.475 23.7715C261.312 25.1061 261.23 26.4733 261.23 27.873C261.23 28.6217 261.393 29.11 261.719 29.3379C262.077 29.5658 262.63 29.6797 263.379 29.6797C263.737 29.6797 264.046 29.6309 264.307 29.5332C264.6 29.403 264.876 29.2728 265.137 29.1426C265.397 28.9798 265.658 28.8496 265.918 28.752C266.211 28.6217 266.52 28.5566 266.846 28.5566C266.846 29.0449 266.715 29.5007 266.455 29.9238C266.195 30.3145 265.869 30.6562 265.479 30.9492C265.088 31.2096 264.648 31.4212 264.16 31.584C263.672 31.7142 263.216 31.7793 262.793 31.7793C262.435 31.7793 262.061 31.7305 261.67 31.6328C261.312 31.5352 260.97 31.3887 260.645 31.1934C260.352 30.9655 260.091 30.6888 259.863 30.3633C259.668 30.0378 259.57 29.6471 259.57 29.1914V19.8164C259.212 20.0768 258.805 20.5488 258.35 21.2324C257.926 21.916 257.471 22.6973 256.982 23.5762C256.527 24.4551 256.055 25.3828 255.566 26.3594C255.111 27.3359 254.655 28.2148 254.199 28.9961C253.743 29.7773 253.304 30.4447 252.881 30.998C252.458 31.5189 252.067 31.7793 251.709 31.7793C251.351 31.7793 251.09 31.6165 250.928 31.291C250.765 30.9655 250.651 30.6074 250.586 30.2168C250.553 29.7936 250.537 29.403 250.537 29.0449C250.537 28.6868 250.537 28.4427 250.537 28.3125C250.537 27.5312 250.586 26.75 250.684 25.9688C250.781 25.1875 250.895 24.4062 251.025 23.625C251.156 22.8112 251.27 22.0137 251.367 21.2324C251.465 20.4512 251.514 19.6699 251.514 18.8887C251.514 18.791 251.514 18.6445 251.514 18.4492C251.514 18.2539 251.481 18.0749 251.416 17.9121C251.383 17.7168 251.318 17.554 251.221 17.4238C251.123 17.2611 250.993 17.1797 250.83 17.1797C250.798 17.1797 250.765 17.196 250.732 17.2285C250.732 17.2285 250.716 17.2285 250.684 17.2285C250.684 17.2611 250.651 17.2773 250.586 17.2773C250.553 17.2773 250.488 17.3262 250.391 17.4238C250.293 17.5215 250.228 17.6029 250.195 17.668C249.837 18.1237 249.365 18.7096 248.779 19.4258C248.193 20.1419 247.624 20.8418 247.07 21.5254C246.517 22.209 246.045 22.7949 245.654 23.2832C245.264 23.7715 245.052 24.0156 245.02 24.0156C244.922 24.2109 244.743 24.6829 244.482 25.4316C244.255 26.1803 243.994 26.9941 243.701 27.873C243.441 28.7194 243.197 29.5332 242.969 30.3145C242.741 31.0632 242.578 31.5352 242.48 31.7305C242.318 32.2513 242.106 32.6094 241.846 32.8047C241.585 33 241.195 33.0977 240.674 33.0977C240.674 31.9909 240.723 30.9004 240.82 29.8262C240.918 28.752 241.032 27.6777 241.162 26.6035C241.292 25.4967 241.406 24.4062 241.504 23.332C241.602 22.2253 241.65 21.1022 241.65 19.9629V19.8164Z" fill="white"/>
</svg>
