<svg width="689" height="1005" viewBox="0 0 689 1005" fill="none" xmlns="http://www.w3.org/2000/svg">
<g opacity="0.27" filter="url(#filter0_f_95_52)">
<ellipse cx="344.5" cy="925.5" rx="339.5" ry="74.5" fill="url(#paint0_linear_95_52)"/>
</g>
<g opacity="0.3" filter="url(#filter1_f_95_52)">
<path fill-rule="evenodd" clip-rule="evenodd" d="M5 923.5C85.0575 575.896 218.5 -4 218.5 -4H481.5L684 923.5H683.772C677.163 883.632 527.795 851.757 344.5 851.757C161.205 851.757 11.8371 883.632 5.22814 923.5H5Z" fill="url(#paint1_linear_95_52)"/>
<path fill-rule="evenodd" clip-rule="evenodd" d="M5 923.5C85.0575 575.896 218.5 -4 218.5 -4H481.5L684 923.5H683.772C677.163 883.632 527.795 851.757 344.5 851.757C161.205 851.757 11.8371 883.632 5.22814 923.5H5Z" fill="url(#paint2_linear_95_52)"/>
</g>
<defs>
<filter id="filter0_f_95_52" x="0" y="846" width="689" height="159" filterUnits="userSpaceOnUse" color-interpolation-filters="sRGB">
<feFlood flood-opacity="0" result="BackgroundImageFix"/>
<feBlend mode="normal" in="SourceGraphic" in2="BackgroundImageFix" result="shape"/>
<feGaussianBlur stdDeviation="2.5" result="effect1_foregroundBlur_95_52"/>
</filter>
<filter id="filter1_f_95_52" x="0" y="-9" width="689" height="937.5" filterUnits="userSpaceOnUse" color-interpolation-filters="sRGB">
<feFlood flood-opacity="0" result="BackgroundImageFix"/>
<feBlend mode="normal" in="SourceGraphic" in2="BackgroundImageFix" result="shape"/>
<feGaussianBlur stdDeviation="2.5" result="effect1_foregroundBlur_95_52"/>
</filter>
<linearGradient id="paint0_linear_95_52" x1="-579.5" y1="1205.5" x2="-232.344" y2="1580.76" gradientUnits="userSpaceOnUse">
<stop stop-color="#E1E1E1"/>
<stop offset="1" stop-color="#3B3B3B"/>
</linearGradient>
<linearGradient id="paint1_linear_95_52" x1="342.5" y1="-4" x2="342.5" y2="924.669" gradientUnits="userSpaceOnUse">
<stop stop-color="#D7D7D7"/>
<stop offset="1" stop-color="#252525"/>
</linearGradient>
<linearGradient id="paint2_linear_95_52" x1="143" y1="338.48" x2="567.46" y2="361.604" gradientUnits="userSpaceOnUse">
<stop stop-color="white" stop-opacity="0"/>
<stop offset="0.24" stop-color="white" stop-opacity="0.21045"/>
<stop offset="0.53" stop-color="#262626" stop-opacity="0.3657"/>
<stop offset="1" stop-color="#2E2E2E" stop-opacity="0.69"/>
</linearGradient>
</defs>
</svg>
