<svg width="59" height="88" viewBox="0 0 59 88" fill="none" xmlns="http://www.w3.org/2000/svg">
<path d="M4.50765 44.5369L4.49406 44.5538L4.48077 44.571C3.71682 45.5597 3.07031 46.7726 3.07031 48.2871C3.07031 51.1178 5.33488 53.1114 8.03125 53.1114H23.7592L14.8192 77.4116C14.8177 77.4157 14.8162 77.4197 14.8146 77.4237C13.8127 80.0843 14.5507 82.8964 16.9297 84.1645C19.239 85.3955 21.9887 84.5607 23.7235 82.3882L23.7259 82.3851L54.7839 43.5711C54.7856 43.5691 54.7872 43.567 54.7888 43.565C55.5972 42.5646 56.2295 41.3441 56.2295 39.8106C56.2295 37.0377 53.9896 34.9864 51.2686 34.9864H35.5406L44.4852 10.674C45.4857 8.01705 44.7524 5.19753 42.363 3.93369C40.0423 2.70625 37.2967 3.56786 35.5717 5.74956L4.50765 44.5369Z" fill="white" stroke="black" stroke-width="5"/>
</svg>
