<svg width="128" height="128" viewBox="0 0 128 128" fill="none" xmlns="http://www.w3.org/2000/svg">
<path fill-rule="evenodd" clip-rule="evenodd" d="M107.693 77.6012L20.3072 84.1247C16.029 84.4282 12.3575 81.0298 12.3575 76.7516V64.554V63.7044V51.5069C12.3575 47.1983 16.029 43.8 20.3072 44.1337L107.693 50.6573C111.971 50.9911 115.642 47.5927 115.642 43.2841V28.6592C115.642 25.7767 113.974 23.1369 111.334 21.9536L73.9522 4.68886C69.0368 2.44354 63.4538 6.02392 63.4538 11.3945V62.7942V65.4036V116.803C63.4538 122.204 69.0368 125.785 73.9522 123.509L111.303 106.275C113.913 105.061 115.612 102.451 115.612 99.5689V84.944C115.642 80.6657 111.971 77.2674 107.693 77.6012Z" stroke="black" stroke-width="3.54162" stroke-miterlimit="10" stroke-linecap="round" stroke-linejoin="round"/>
<path d="M115.639 37.1854L45.7607 22.8942C41.179 21.9536 36.8704 25.4733 36.8704 30.146V63.2494V65.0092V98.1126C36.8704 102.785 41.179 106.305 45.7607 105.364L115.639 91.0732" stroke="black" stroke-width="3.54162" stroke-miterlimit="10" stroke-linecap="round" stroke-linejoin="round"/>
<path d="M36.7388 80.0987V48.7041C36.7388 47.1712 35.5766 45.8881 34.0512 45.7369L16.374 43.9851C14.6196 43.8113 13.0983 45.1893 13.0983 46.9523V81.532C13.0983 83.2738 14.5849 84.6447 16.3209 84.504L33.9981 83.0707C35.5463 82.9451 36.7388 81.652 36.7388 80.0987Z" fill="black"/>
<path d="M63.574 44.29V28.9518C63.574 27.4869 62.5099 26.239 61.0634 26.0076L41.3911 22.86C39.0618 22.4873 36.9518 24.2866 36.9518 26.6455V42.8026C36.9518 44.3662 38.1597 45.6643 39.7193 45.7766L60.3782 47.264C62.1048 47.3883 63.574 46.0211 63.574 44.29Z" fill="black"/>
<path d="M36.9517 101.581V86.2429C36.9517 84.778 38.0158 83.5301 39.4623 83.2987L59.1346 80.1511C61.4639 79.7784 63.5739 81.5777 63.5739 83.9365V100.094C63.5739 101.657 62.366 102.955 60.8063 103.068L40.1475 104.555C38.4209 104.679 36.9517 103.312 36.9517 101.581Z" fill="black"/>
<path d="M115.541 37.4841L63.5739 26.6223V13.3337C63.5739 7.11171 70.0272 2.9886 75.6731 5.6033L115.541 24.0665V37.4841Z" fill="black"/>
<path d="M115.541 90.5157L63.5739 101.378V114.666C63.5739 120.888 70.0272 125.011 75.6731 122.396L115.541 103.933V90.5157Z" fill="black"/>
</svg>
